<svg xmlns="http://www.w3.org/2000/svg" width="24" height="24" viewBox="0 0 24 24">
  <g id="google_icon" transform="translate(619 -1371)">
    <rect id="Прямоугольник_371" data-name="Прямоугольник 371" width="24" height="24" transform="translate(-619 1371)" fill="rgba(255,255,255,0)"/>
    <path id="Icon_simple-google" data-name="Icon simple-google" d="M10.36,8.571V12h5.672a5.4,5.4,0,0,1-5.672,4.312,6.313,6.313,0,0,1,0-12.623,5.629,5.629,0,0,1,3.988,1.541l2.712-2.615A9.6,9.6,0,0,0,10.36,0a10,10,0,1,0,0,20c5.772,0,9.6-4.058,9.6-9.772A9.111,9.111,0,0,0,19.8,8.571Z" transform="translate(-617.16 1373)" fill="#fff"/>
  </g>
</svg>
