<svg xmlns="http://www.w3.org/2000/svg" width="13.137" height="12.261" viewBox="0 0 13.137 12.261">
  <g id="ic_bag_roze" transform="translate(0 -2)">
    <path id="Контур_235" data-name="Контур 235" d="M12.918,5.065V2H.219V5.065H0v8.158a1.039,1.039,0,0,0,1.038,1.038H12.1a1.039,1.039,0,0,0,1.038-1.038V5.065Zm-.547,0L11.236,3.553l1.115-1.115h.128V5.065Zm-1.2-.876.657.876h-.657ZM3.284,2.438h8.448l-.94.94a.221.221,0,0,0-.017.025.205.205,0,0,0-.022.033s-.006.009-.008.014a.19.19,0,0,0-.006.027.2.2,0,0,0-.008.041.149.149,0,0,0,0,.015V5.065H2.408V3.533c0-.005,0-.01,0-.015A.24.24,0,0,0,2.4,3.476a.19.19,0,0,0-.006-.027c0-.005-.006-.009-.008-.014A.214.214,0,0,0,2.361,3.4a.223.223,0,0,0-.017-.025l-.94-.94h1.88ZM1.314,5.065l.657-.876v.876ZM.657,2.438H.785L1.9,3.553.766,5.065H.657ZM12.7,13.223a.6.6,0,0,1-.6.6H1.038a.6.6,0,0,1-.6-.6V5.5H12.7Z" fill="#d01363"/>
    <path id="Контур_236" data-name="Контур 236" d="M22.474,24a.219.219,0,0,0-.219.219v1.314a2.408,2.408,0,0,1-4.817,0V24.219a.219.219,0,0,0-.438,0v1.314a2.846,2.846,0,0,0,5.693,0V24.219A.219.219,0,0,0,22.474,24Z" transform="translate(-13.278 -17.183)" fill="#d01363"/>
    <path id="Контур_237" data-name="Контур 237" d="M15.314,21.876a.219.219,0,0,0,.438,0,.876.876,0,1,0-1.752,0,.219.219,0,0,0,.438,0,.438.438,0,1,1,.876,0Z" transform="translate(-10.935 -14.84)" fill="#d01363"/>
    <path id="Контур_238" data-name="Контур 238" d="M38.876,21a.877.877,0,0,0-.876.876.219.219,0,0,0,.438,0,.438.438,0,1,1,.876,0,.219.219,0,0,0,.438,0A.877.877,0,0,0,38.876,21Z" transform="translate(-29.68 -14.84)" fill="#d01363"/>
    <ellipse id="Эллипс_101" data-name="Эллипс 101" cy="0.5" ry="0.5" transform="translate(5 3)" fill="#d01363"/>
    <ellipse id="Эллипс_102" data-name="Эллипс 102" cy="0.5" ry="0.5" transform="translate(6 2)" fill="#d01363"/>
    <circle id="Эллипс_103" data-name="Эллипс 103" transform="translate(6 4)" fill="#d01363"/>
    <circle id="Эллипс_104" data-name="Эллипс 104" cx="0.5" cy="0.5" r="0.5" transform="translate(6 3)" fill="#d01363"/>
    <ellipse id="Эллипс_105" data-name="Эллипс 105" cy="0.5" ry="0.5" transform="translate(4 3)" fill="#d01363"/>
    <circle id="Эллипс_106" data-name="Эллипс 106" cx="0.5" cy="0.5" r="0.5" transform="translate(4 2)" fill="#d01363"/>
    <ellipse id="Эллипс_107" data-name="Эллипс 107" cx="0.5" rx="0.5" transform="translate(4 4)" fill="#d01363"/>
    <circle id="Эллипс_108" data-name="Эллипс 108" cx="0.5" cy="0.5" r="0.5" transform="translate(2 3)" fill="#d01363"/>
    <ellipse id="Эллипс_109" data-name="Эллипс 109" cy="0.5" ry="0.5" transform="translate(2 2)" fill="#d01363"/>
    <circle id="Эллипс_110" data-name="Эллипс 110" cx="0.5" cy="0.5" r="0.5" transform="translate(3 2)" fill="#d01363"/>
    <ellipse id="Эллипс_111" data-name="Эллипс 111" cx="0.5" rx="0.5" transform="translate(3 4)" fill="#d01363"/>
    <circle id="Эллипс_112" data-name="Эллипс 112" cx="0.5" cy="0.5" r="0.5" transform="translate(10 3)" fill="#d01363"/>
    <ellipse id="Эллипс_113" data-name="Эллипс 113" cy="0.5" ry="0.5" transform="translate(11 2)" fill="#d01363"/>
    <ellipse id="Эллипс_114" data-name="Эллипс 114" cy="0.5" ry="0.5" transform="translate(7 2)" fill="#d01363"/>
    <circle id="Эллипс_115" data-name="Эллипс 115" transform="translate(7 4)" fill="#d01363"/>
    <ellipse id="Эллипс_116" data-name="Эллипс 116" cy="0.5" ry="0.5" transform="translate(8 3)" fill="#d01363"/>
    <ellipse id="Эллипс_117" data-name="Эллипс 117" cy="0.5" ry="0.5" transform="translate(9 3)" fill="#d01363"/>
    <ellipse id="Эллипс_118" data-name="Эллипс 118" cy="0.5" ry="0.5" transform="translate(5 4)" fill="#d01363"/>
    <circle id="Эллипс_119" data-name="Эллипс 119" cx="0.5" cy="0.5" r="0.5" transform="translate(6 4)" fill="#d01363"/>
    <ellipse id="Эллипс_120" data-name="Эллипс 120" cy="0.5" ry="0.5" transform="translate(4 4)" fill="#d01363"/>
    <circle id="Эллипс_121" data-name="Эллипс 121" cx="0.5" cy="0.5" r="0.5" transform="translate(2 4)" fill="#d01363"/>
    <circle id="Эллипс_122" data-name="Эллипс 122" cx="0.5" cy="0.5" r="0.5" transform="translate(10 4)" fill="#d01363"/>
    <ellipse id="Эллипс_123" data-name="Эллипс 123" cy="0.5" ry="0.5" transform="translate(8 4)" fill="#d01363"/>
    <ellipse id="Эллипс_124" data-name="Эллипс 124" cy="0.5" ry="0.5" transform="translate(9 4)" fill="#d01363"/>
    <circle id="Эллипс_125" data-name="Эллипс 125" cx="0.5" cy="0.5" r="0.5" transform="translate(8 2)" fill="#d01363"/>
    <ellipse id="Эллипс_126" data-name="Эллипс 126" cy="0.5" ry="0.5" transform="translate(10 2)" fill="#d01363"/>
    <ellipse id="Эллипс_127" data-name="Эллипс 127" cx="0.5" rx="0.5" transform="translate(8 4)" fill="#d01363"/>
    <circle id="Эллипс_128" data-name="Эллипс 128" transform="translate(10 4)" fill="#d01363"/>
  </g>
</svg>
