<svg xmlns="http://www.w3.org/2000/svg" xmlns:xlink="http://www.w3.org/1999/xlink" width="83.333" height="83.308" viewBox="0 0 83.333 83.308">
  <defs>
    <clipPath id="clip-path">
      <rect id="Прямоугольник_252" data-name="Прямоугольник 252" width="83.333" height="83.308" fill="rgba(0,0,0,0.15)"/>
    </clipPath>
  </defs>
  <g id="ic_box" transform="translate(0 0)">
    <g id="Сгруппировать_183" data-name="Сгруппировать 183" transform="translate(0 0.001)" clip-path="url(#clip-path)">
      <path id="Контур_42" data-name="Контур 42" d="M26.54,83.309c-1.924-1.248-3.84-2.51-5.776-3.739Q10.951,73.347,1.119,67.157A2.123,2.123,0,0,1,0,65.114Q.041,44.25,0,23.386A2.071,2.071,0,0,1,1.078,21.4c2.111-1.324,4.162-2.743,6.279-4.057a1.474,1.474,0,0,1,1.319-.059,1.7,1.7,0,0,1,.562,1.286c-.011.326-.438.715-.771.942-1.587,1.082-3.206,2.119-4.9,3.227.238.175.417.32.61.442Q15.3,30.223,26.414,37.267a.89.89,0,0,0,1.15.068q9.364-6.172,18.758-12.3c.089-.059.169-.132.324-.255-.238-.166-.442-.318-.656-.454Q34.906,17.305,23.827,10.271a1,1,0,0,0-1.277.026c-2.706,1.8-5.431,3.572-8.157,5.342-.855.555-1.631.383-1.962-.424a1.126,1.126,0,0,1,.423-1.5q4.822-3.17,9.653-6.324a1.348,1.348,0,0,1,1.587.144c2.353,1.5,4.716,2.98,7.063,4.486a1.46,1.46,0,0,0,1.354.208c2.812-.868,5.64-1.686,8.63-2.571-.343-.236-.567-.4-.8-.553-3.5-2.22-7.005-4.428-10.489-6.672a1.941,1.941,0,0,1-.827-1.009c-.228-.93.591-1.6,1.629-1.388q7.4,1.475,14.794,2.967c3.578.72,7.159,1.434,10.732,2.173a3.67,3.67,0,0,1,1.184.486q12.5,7.892,24.988,15.812a10.1,10.1,0,0,1,.985.809V66.222A7.246,7.246,0,0,1,82,67.04c-1.12.4-2.271.706-3.413,1.038-1.028.3-1.567.061-1.811-.775-.224-.769.127-1.279,1.084-1.571.853-.26,1.716-.493,2.553-.8.2-.074.337-.375.473-.591.048-.078.008-.212.008-.32V24.441l-52.553,15.6V80.413c2.336-.688,4.614-1.353,6.89-2.028q17.88-5.313,35.759-10.63c.985-.293,1.51-.151,1.826.48.4.812.04,1.548-.958,1.849-2.588.78-5.181,1.541-7.771,2.309Q46.1,77.729,28.107,83.069c-.2.061-.394.16-.591.24ZM2.489,25.061c-.015.341-.034.573-.034.8q0,19.239-.014,38.476a1.128,1.128,0,0,0,.6,1.1q11.066,6.974,22.112,13.98c.173.109.363.189.609.315.014-.324.034-.563.034-.8q0-19.2.014-38.394a1.212,1.212,0,0,0-.654-1.165Q14.605,32.722,4.072,26.042c-.5-.314-1-.619-1.583-.981M34.608,14.179c.411.269.678.449.951.622q6.829,4.322,13.657,8.644c1.355.858,1.353,1.759-.005,2.649q-6.59,4.319-13.181,8.634c-.229.15-.453.309-.68.464l.088.164L76.727,23.1c-6.043-1.34-12.06-2.532-18.071-3.762A12.235,12.235,0,0,1,54.949,18.3c-3.411-1.992-6.717-4.166-10.034-6.315a2.133,2.133,0,0,0-2.014-.3c-2.7.859-5.426,1.638-8.292,2.492M37,3.844c-.008.053-.016.105-.025.158a1.21,1.21,0,0,0,.172.16q9.5,6.019,19.007,12.025a2.262,2.262,0,0,0,.749.269q7.111,1.449,14.224,2.883c1.424.286,2.851.547,4.513.864-.289-.218-.369-.288-.456-.344q-9.467-6-18.941-11.987a3.174,3.174,0,0,0-1.052-.389Q48.433,6.108,41.672,4.763C40.115,4.451,38.555,4.15,37,3.844" transform="translate(0 -0.001)" fill="rgba(0,0,0,0.15)"/>
      <path id="Контур_43" data-name="Контур 43" d="M32.406,66.486c0-1.845,0-3.688,0-5.533,0-1.1.21-1.374,1.247-1.683Q48.891,54.734,64.131,50.2q5.054-1.5,10.111-2.995c1.224-.36,1.914.133,1.917,1.389q.015,5.654,0,11.308c0,.971-.283,1.3-1.367,1.618q-11.772,3.5-23.546,7.005Q42.891,71.009,34.538,73.5c-1.564.465-2.13.052-2.132-1.561q0-2.726,0-5.451M73.677,49.942c-1.583.474-3,.9-4.426,1.325q-16.746,4.974-33.5,9.928c-.741.218-.973.538-.925,1.287.07,1.08.017,2.168.017,3.252v5.092c2.269-.674,4.444-1.318,6.616-1.965Q57.2,64.172,72.943,59.5a.856.856,0,0,0,.747-1.007c-.039-1.463-.013-2.927-.013-4.391V49.942" transform="translate(0.313 0.454)" fill="rgba(0,0,0,0.15)"/>
      <path id="Контур_44" data-name="Контур 44" d="M58.019,59.6c0,.54.023,1.081-.005,1.62a1.288,1.288,0,0,1-1.233,1.346,1.252,1.252,0,0,1-1.253-1.318c-.038-1.106-.038-2.215,0-3.321a1.119,1.119,0,0,1,1.217-1.214,1.176,1.176,0,0,1,1.266,1.267c.029.538.006,1.079.006,1.619" transform="translate(0.536 0.547)" fill="rgba(0,0,0,0.15)"/>
      <path id="Контур_45" data-name="Контур 45" d="M42.7,64.268c0,.566.032,1.136-.009,1.7a1.27,1.27,0,0,1-1.226,1.265,1.241,1.241,0,0,1-1.244-1.24c-.046-1.159-.046-2.322,0-3.481a1.091,1.091,0,0,1,1.211-1.133,1.163,1.163,0,0,1,1.259,1.188c.04.564.008,1.134.007,1.7" transform="translate(0.388 0.593)" fill="rgba(0,0,0,0.15)"/>
      <path id="Контур_46" data-name="Контур 46" d="M67.88,56.564c0,.566.024,1.135-.005,1.7A1.233,1.233,0,0,1,66.641,59.5a1.207,1.207,0,0,1-1.2-1.258c-.023-1.16-.027-2.321.006-3.481a1.052,1.052,0,0,1,1.2-1.112,1.139,1.139,0,0,1,1.221,1.131c.032.592.006,1.187.007,1.781" transform="translate(0.632 0.518)" fill="rgba(0,0,0,0.15)"/>
      <path id="Контур_47" data-name="Контур 47" d="M71.433,55.556c0,.594.021,1.188-.007,1.781a1.209,1.209,0,0,1-2.418-.019q-.038-1.74,0-3.482a1.072,1.072,0,0,1,1.171-1.151,1.143,1.143,0,0,1,1.256,1.171c0,.026,0,.054,0,.081q0,.81,0,1.62" transform="translate(0.667 0.509)" fill="rgba(0,0,0,0.15)"/>
      <path id="Контур_48" data-name="Контур 48" d="M64.326,57.57c0,.54.023,1.081-.007,1.619a1.248,1.248,0,0,1-1.284,1.28,1.224,1.224,0,0,1-1.169-1.3c-.028-1.133-.031-2.268.006-3.4a1.061,1.061,0,0,1,1.17-1.152,1.183,1.183,0,0,1,1.281,1.168c.005.054,0,.107,0,.162q0,.81,0,1.62" transform="translate(0.598 0.527)" fill="rgba(0,0,0,0.15)"/>
      <path id="Контур_49" data-name="Контур 49" d="M52.1,60.409c0-.54-.023-1.08.006-1.619a1.229,1.229,0,0,1,2.459-.017c.035,1.132.037,2.268,0,3.4a1.149,1.149,0,0,1-1.209,1.237,1.223,1.223,0,0,1-1.249-1.3c-.027-.565-.006-1.134-.005-1.7" transform="translate(0.503 0.556)" fill="rgba(0,0,0,0.15)"/>
      <path id="Контур_50" data-name="Контур 50" d="M48.248,62.4c0,.594.023,1.188-.007,1.781a1.152,1.152,0,0,1-1.169,1.188,1.193,1.193,0,0,1-1.259-1.2c-.034-1.159-.03-2.321,0-3.48A1.164,1.164,0,0,1,46.992,59.5a1.191,1.191,0,0,1,1.251,1.2c.026.566.006,1.134.005,1.7" transform="translate(0.442 0.574)" fill="rgba(0,0,0,0.15)"/>
      <path id="Контур_51" data-name="Контур 51" d="M39.191,65.141c0,.566.024,1.135-.005,1.7a1.193,1.193,0,0,1-1.232,1.223,1.154,1.154,0,0,1-1.2-1.234c-.024-1.16-.026-2.321.005-3.481a1.1,1.1,0,0,1,1.2-1.133,1.18,1.18,0,0,1,1.224,1.144c.034.592.007,1.187.008,1.781" transform="translate(0.355 0.601)" fill="rgba(0,0,0,0.15)"/>
    </g>
  </g>
</svg>
