<svg xmlns="http://www.w3.org/2000/svg" width="18" height="14.963" viewBox="0 0 18 14.963">
  <path id="ic_bussiness_home" d="M17.6,3.466,15.7.438A.936.936,0,0,0,14.907,0H3.1a.936.936,0,0,0-.792.438L.411,3.466A2.607,2.607,0,0,0,2.13,7.452a3.037,3.037,0,0,0,.4.026,2.886,2.886,0,0,0,2.157-.967A2.888,2.888,0,0,0,9,6.511a2.888,2.888,0,0,0,4.314,0,2.9,2.9,0,0,0,2.157.967,3,3,0,0,0,.4-.026A2.6,2.6,0,0,0,17.6,3.466ZM15.477,8.417a3.708,3.708,0,0,1-.862-.111v2.917H3.392V8.306a3.871,3.871,0,0,1-.862.111A3.943,3.943,0,0,1,2,8.382a3.675,3.675,0,0,1-.479-.105v5.751a.934.934,0,0,0,.935.935H15.553a.934.934,0,0,0,.935-.935V8.276a2.984,2.984,0,0,1-.479.105A4.064,4.064,0,0,1,15.477,8.417Z" transform="translate(-0.004)"/>
</svg>
