<svg xmlns="http://www.w3.org/2000/svg" xmlns:xlink="http://www.w3.org/1999/xlink" width="33.957" height="29.707" viewBox="0 0 33.957 29.707">
  <defs>
    <clipPath id="clip-path">
      <rect id="Прямоугольник_267" data-name="Прямоугольник 267" width="33.957" height="29.707" fill="#fff"/>
    </clipPath>
  </defs>
  <g id="ic_business_empty" clip-path="url(#clip-path)">
    <path id="Контур_55" data-name="Контур 55" d="M33.957,9.477v.8a1.5,1.5,0,0,0-.057.188,4.783,4.783,0,0,1-2.645,3.626c-.22.113-.221.26-.221.451,0,4.688-.009,9.377.013,14.065a1,1,0,0,1-1.113,1.1q-12.97-.017-25.94-.008C3.2,29.7,2.9,29.394,2.9,28.6q0-7.033.005-14.065a.461.461,0,0,0-.285-.482A4.8,4.8,0,0,1,.061,10.614,2.326,2.326,0,0,1,.33,8.873C1.912,6.154,3.458,3.413,5,.669A1.179,1.179,0,0,1,6.143,0Q16.974.011,27.8,0a1.158,1.158,0,0,1,1.121.656c1.066,1.908,2.154,3.8,3.238,5.7.594,1.042,1.2,2.079,1.794,3.118M4.582,27.988H7.5v-.411c0-2.754,0-5.507,0-8.26a3.788,3.788,0,0,1,.111-.982,2.805,2.805,0,0,1,2.822-2.156c.707-.007,1.415,0,2.123,0a2.866,2.866,0,0,1,3.083,3.08q0,4.163,0,8.327v.4H29.349V14.622a4.988,4.988,0,0,1-4.309-2.139,4.889,4.889,0,0,1-8.068,0,4.9,4.9,0,0,1-8.082-.006,4.991,4.991,0,0,1-1.875,1.634,5.354,5.354,0,0,1-2.432.518ZM2.447,8.612H31.491c-.049-.1-.082-.179-.124-.253q-1.824-3.212-3.643-6.425a.436.436,0,0,0-.454-.232q-10.3.005-20.6,0a.484.484,0,0,0-.487.291Q4.4,5.152,2.605,8.3c-.052.092-.1.19-.158.31M9.2,27.979H13.97c.006-.066.014-.109.014-.152q0-4.358,0-8.716a1.2,1.2,0,0,0-1.271-1.27c-.718-.011-1.436,0-2.154,0A1.214,1.214,0,0,0,9.2,19.212q0,4.209,0,8.418ZM25.983,10.341a3.129,3.129,0,0,0,3.024,2.592A3.163,3.163,0,0,0,32.2,10.341Zm-24.23-.012A3.155,3.155,0,0,0,5,12.929a3.066,3.066,0,0,0,2.937-2.6Zm8.06,0a3.205,3.205,0,0,0,3.352,2.592,3.085,3.085,0,0,0,2.855-2.592Zm8.093,0a3.154,3.154,0,0,0,6.21,0Z" transform="translate(0 0)" fill="#fff"/>
    <path id="Контур_56" data-name="Контур 56" d="M42.981,36.055c.741,0,1.481.017,2.221,0a2.291,2.291,0,0,1,2.36,2.223c0,1.3.021,2.608-.023,3.91a2.164,2.164,0,0,1-1.973,1.956q-2.6.055-5.2,0A2.152,2.152,0,0,1,38.412,42.2c-.044-1.39-.044-2.783,0-4.172A2.208,2.208,0,0,1,40.5,36.067c.828-.025,1.657-.005,2.485-.005v-.007m0,6.444c.718,0,1.436,0,2.154,0,.522,0,.76-.229.762-.738q.006-1.657,0-3.314a.643.643,0,0,0-.712-.726q-2.2-.014-4.407,0a.651.651,0,0,0-.727.746q-.005,1.64,0,3.28c0,.522.227.75.745.753.729,0,1.458,0,2.187,0" transform="translate(-21.162 -19.878)" fill="#fff"/>
  </g>
</svg>
