<svg xmlns="http://www.w3.org/2000/svg" width="15" height="15" viewBox="0 0 15 15">
  <g id="ic_edit" transform="translate(950 -1334)">
    <rect id="Прямоугольник_373" data-name="Прямоугольник 373" width="15" height="15" transform="translate(-950 1334)" fill="rgba(255,255,255,0)"/>
    <path id="Icon_awesome-edit" data-name="Icon awesome-edit" d="M7.264,1.506,8.892,3.134a.176.176,0,0,1,0,.249L4.951,7.324,3.277,7.51a.351.351,0,0,1-.388-.388l.186-1.674L7.015,1.506A.176.176,0,0,1,7.264,1.506Zm2.923-.413L9.307.213a.706.706,0,0,0-1,0L7.672.851a.176.176,0,0,0,0,.249L9.3,2.728a.176.176,0,0,0,.249,0l.639-.639a.706.706,0,0,0,0-1ZM6.929,6.252V8.089H1.155V2.315H5.3a.222.222,0,0,0,.153-.063l.722-.722a.217.217,0,0,0-.153-.37H.866A.866.866,0,0,0,0,2.026V8.377a.866.866,0,0,0,.866.866H7.217a.866.866,0,0,0,.866-.866V5.53a.217.217,0,0,0-.37-.153L6.992,6.1A.222.222,0,0,0,6.929,6.252Z" transform="translate(-947.697 1336.875)"/>
  </g>
</svg>
