<svg xmlns="http://www.w3.org/2000/svg" xmlns:xlink="http://www.w3.org/1999/xlink" width="11.318" height="11.263" viewBox="0 0 11.318 11.263">
  <defs>
    <clipPath id="clip-path">
      <rect id="Прямоугольник_48" data-name="Прямоугольник 48" width="11.318" height="11.263" fill="none"/>
    </clipPath>
  </defs>
  <g id="ic_edit_gray" transform="translate(0 0)">
    <g id="Сгруппировать_46" data-name="Сгруппировать 46" transform="translate(0 0)" clip-path="url(#clip-path)">
      <path id="Контур_5" data-name="Контур 5" d="M4.78,13.615H1.617A1.551,1.551,0,0,1,.038,12.4L0,12.238.006,4.6l.019-.071c.014-.055.028-.109.045-.163a1.548,1.548,0,0,1,1.523-1.1c.51,0,1.02,0,1.53,0h.846a.47.47,0,0,1,.453.259.415.415,0,0,1-.052.463.46.46,0,0,1-.389.173h0q-.987,0-1.974,0H1.627a.688.688,0,0,0-.6.268A.6.6,0,0,0,.9,4.769V4.8c0,.026,0,.052,0,.079V6.913q0,2.539,0,5.077a.678.678,0,0,0,.709.731q3.847,0,7.7,0a.664.664,0,0,0,.69-.512,1.036,1.036,0,0,0,.024-.248q0-.709,0-1.418V9.631a.447.447,0,0,1,.38-.479.441.441,0,0,1,.5.389.845.845,0,0,1,.006.107v.648q0,.858,0,1.715a1.541,1.541,0,0,1-1.069,1.518,1.839,1.839,0,0,1-.553.083q-2.25,0-4.5,0" transform="translate(0 -2.352)" fill="#1a1818"/>
      <path id="Контур_6" data-name="Контур 6" d="M17.983,0a1.187,1.187,0,0,1,.823.338,4.7,4.7,0,0,1,.479.5,1.231,1.231,0,0,1-.043,1.53c-.044.053-.092.1-.14.152q-2.409,2.409-4.817,4.819a.639.639,0,0,1-.295.172c-.722.2-1.443.4-2.165.6-.028.008-.056.016-.084.023a.279.279,0,0,1-.347-.348q.317-1.168.647-2.332a.419.419,0,0,1,.109-.171q2.449-2.454,4.9-4.9A1.26,1.26,0,0,1,17.983,0M14.025,6.775,18.051,2.75,16.773,1.473,12.748,5.5l1.277,1.278m4.46-4.422c.114-.12.24-.236.346-.367a.666.666,0,0,0-.012-.834,3.812,3.812,0,0,0-.446-.444.6.6,0,0,0-.71-.075,3.724,3.724,0,0,0-.5.4l1.319,1.319m-6.031,3.7-.389,1.409,1.41-.39L12.454,6.056" transform="translate(-8.213 0)" fill="#1a1818"/>
    </g>
  </g>
</svg>
