<svg id="ic_favoite_active" xmlns="http://www.w3.org/2000/svg" xmlns:xlink="http://www.w3.org/1999/xlink" width="24.106" height="19" viewBox="0 0 24.106 19">
  <defs>
    <clipPath id="clip-path">
      <rect id="Прямоугольник_354" data-name="Прямоугольник 354" width="24.106" height="19" fill="#d10d0d"/>
    </clipPath>
  </defs>
  <g id="Сгруппировать_270" data-name="Сгруппировать 270" clip-path="url(#clip-path)">
    <path id="Контур_103" data-name="Контур 103" d="M12.1,2.889A6.8,6.8,0,0,1,17.864.047a8,8,0,0,1,3.055.42,4.7,4.7,0,0,1,2.9,3.555,10.23,10.23,0,0,1-.46,6.2,11.522,11.522,0,0,1-3.369,4.633,17.407,17.407,0,0,1-3.987,2.632c-1.144.526-2.305,1.022-3.488,1.451a1.908,1.908,0,0,1-1.161-.079,21.387,21.387,0,0,1-7.163-3.932A11.246,11.246,0,0,1,.326,8.886,9.291,9.291,0,0,1,.76,2.705,4.335,4.335,0,0,1,4.077.2a8.082,8.082,0,0,1,6.3,1.086A15.636,15.636,0,0,1,12.1,2.889" transform="translate(0 0)" fill="#d10d0d"/>
  </g>
</svg>
