<svg xmlns="http://www.w3.org/2000/svg" width="12" height="12" viewBox="0 0 12 12">
  <path id="ic_heart" d="M12.144,3.938h-.029A3.254,3.254,0,0,0,9.375,5.5a3.254,3.254,0,0,0-2.74-1.56H6.606a3.33,3.33,0,0,0-3.231,3.39,7.491,7.491,0,0,0,1.379,3.981,24.573,24.573,0,0,0,4.621,4.629A24.573,24.573,0,0,0,14,11.308a7.491,7.491,0,0,0,1.379-3.981A3.33,3.33,0,0,0,12.144,3.938Zm1.2,6.876a22.555,22.555,0,0,1-3.969,4.068A22.59,22.59,0,0,1,5.406,10.81,6.639,6.639,0,0,1,4.183,7.327a2.591,2.591,0,0,1,.71-1.794A2.391,2.391,0,0,1,6.612,4.78h.026A2.346,2.346,0,0,1,7.823,5.1a2.564,2.564,0,0,1,.877.855.794.794,0,0,0,1.356,0,2.589,2.589,0,0,1,.877-.855,2.346,2.346,0,0,1,1.186-.324h.026a2.4,2.4,0,0,1,1.719.753,2.584,2.584,0,0,1,.71,1.794A6.722,6.722,0,0,1,13.344,10.814Z" transform="translate(-3.375 -3.938)"/>
</svg>
