<svg xmlns="http://www.w3.org/2000/svg" width="13.474" height="13.474" viewBox="0 0 13.474 13.474">
  <path id="ic_profile" d="M10.112,3.375h0A6.734,6.734,0,0,0,3.414,9.4a6.492,6.492,0,0,0,0,1.419,6.734,6.734,0,0,0,6.7,6.028h0a6.737,6.737,0,0,0,0-13.474Zm4.4,10.562c-.735-.279-1.927-.687-2.669-.907-.078-.023-.087-.029-.087-.347a1.843,1.843,0,0,1,.214-.755,3.764,3.764,0,0,0,.3-1.023,2.276,2.276,0,0,0,.44-1.066,1.421,1.421,0,0,0-.013-.894.574.574,0,0,1-.019-.055,5.824,5.824,0,0,1,.1-1.257,2.314,2.314,0,0,0-.483-1.662A2.476,2.476,0,0,0,10.4,5.066H9.83a2.472,2.472,0,0,0-1.879.907,2.3,2.3,0,0,0-.486,1.662,5.824,5.824,0,0,1,.1,1.257c-.006.023-.013.039-.019.058a1.4,1.4,0,0,0-.013.894,2.311,2.311,0,0,0,.44,1.066,3.92,3.92,0,0,0,.3,1.023A1.809,1.809,0,0,1,8.4,12.7c0,.321-.013.324-.084.347-.768.227-1.908.628-2.591.9a5.83,5.83,0,1,1,10.222-3.832A5.776,5.776,0,0,1,14.51,13.937Z" transform="translate(-3.375 -3.375)"/>
</svg>
