<svg xmlns="http://www.w3.org/2000/svg" width="20" height="20" viewBox="0 0 20 20">
  <path id="ic_profile" d="M13.375,3.375h0a10,10,0,0,0-9.942,8.947,9.636,9.636,0,0,0,0,2.106,10,10,0,0,0,9.942,8.947h0a10,10,0,0,0,0-20ZM19.9,19.053c-1.091-.413-2.861-1.019-3.962-1.346-.115-.034-.13-.043-.13-.514a2.736,2.736,0,0,1,.317-1.12,5.587,5.587,0,0,0,.442-1.519,3.378,3.378,0,0,0,.654-1.582,2.11,2.11,0,0,0-.019-1.327.852.852,0,0,1-.029-.082A8.646,8.646,0,0,1,17.327,9.7a3.435,3.435,0,0,0-.716-2.466A3.675,3.675,0,0,0,13.8,5.885h-.841a3.67,3.67,0,0,0-2.788,1.346A3.42,3.42,0,0,0,9.447,9.7,8.645,8.645,0,0,1,9.6,11.562c-.01.034-.019.058-.029.087a2.074,2.074,0,0,0-.019,1.327,3.43,3.43,0,0,0,.654,1.582,5.819,5.819,0,0,0,.442,1.519,2.686,2.686,0,0,1,.183,1.135c0,.476-.019.481-.125.514-1.139.337-2.832.933-3.846,1.337a8.653,8.653,0,1,1,15.173-5.687A8.574,8.574,0,0,1,19.9,19.053Z" transform="translate(-3.375 -3.375)" fill="#d01363"/>
</svg>
