<svg xmlns="http://www.w3.org/2000/svg" width="15" height="15" viewBox="0 0 15 15">
  <g id="ic_phone" transform="translate(926 -1334)">
    <rect id="Прямоугольник_374" data-name="Прямоугольник 374" width="15" height="15" transform="translate(-926 1334)" fill="rgba(255,255,255,0)"/>
    <path id="Icon_metro-mobile" data-name="Icon metro-mobile" d="M15.65,1.928h-8.3a.925.925,0,0,0-.922.922V15.763a.925.925,0,0,0,.922.922h8.3a.925.925,0,0,0,.922-.922V2.85A.925.925,0,0,0,15.65,1.928ZM11.5,16.02a.717.717,0,1,1,.717-.717A.717.717,0,0,1,11.5,16.02Zm4.151-2.1h-8.3V3.773h8.3Z" transform="translate(-930.427 1332.072)"/>
  </g>
</svg>
