<svg xmlns="http://www.w3.org/2000/svg" width="14.467" height="18.108" viewBox="0 0 14.467 18.108">
  <g id="ic_ring" transform="translate(-6.775 -3.93)">
    <path id="Контур_32" data-name="Контур 32" d="M18.35,28.336a.586.586,0,0,0-.575.462,1.134,1.134,0,0,1-.226.493.855.855,0,0,1-.729.267.87.87,0,0,1-.729-.267,1.134,1.134,0,0,1-.226-.493.586.586,0,0,0-.575-.462h0a.59.59,0,0,0-.575.72,2.022,2.022,0,0,0,2.1,1.679,2.018,2.018,0,0,0,2.1-1.679.592.592,0,0,0-.575-.72Z" transform="translate(-2.824 -8.696)"/>
    <path id="Контур_33" data-name="Контур 33" d="M21.06,17.34c-.7-.919-2.068-1.457-2.068-5.571,0-4.223-1.865-5.92-3.6-6.327-.163-.041-.281-.1-.281-.267V5.044A1.11,1.11,0,0,0,14.023,3.93H14a1.11,1.11,0,0,0-1.086,1.113v.131c0,.167-.118.226-.281.267-1.742.412-3.6,2.1-3.6,6.327,0,4.114-1.371,4.648-2.068,5.571a.9.9,0,0,0,.72,1.439H20.354A.9.9,0,0,0,21.06,17.34ZM19.3,17.6H8.741a.2.2,0,0,1-.149-.33,5.483,5.483,0,0,0,.95-1.512,10.256,10.256,0,0,0,.647-3.992,6.941,6.941,0,0,1,.946-3.928,2.9,2.9,0,0,1,1.751-1.249,1.586,1.586,0,0,0,.842-.475.358.358,0,0,1,.539-.009,1.64,1.64,0,0,0,.851.484A2.9,2.9,0,0,1,16.87,7.841a6.941,6.941,0,0,1,.946,3.928,10.256,10.256,0,0,0,.647,3.992,5.546,5.546,0,0,0,.973,1.534A.187.187,0,0,1,19.3,17.6Z"/>
  </g>
</svg>
