<svg xmlns="http://www.w3.org/2000/svg" width="14" height="14" viewBox="0 0 14 14">
  <g id="ic_star_yellow_unmarked" fill="none">
    <path d="M7,0,8.75,5.206,14,5.348,9.832,8.706,11.326,14,7,10.87,2.674,14,4.168,8.706,0,5.348l5.25-.141Z" stroke="none"/>
    <path d="M 7 3.13865852355957 L 5.975290298461914 6.187250137329102 L 2.743728637695312 6.274125576019287 L 5.31035041809082 8.342279434204102 L 4.417690277099609 11.50372791290283 L 7 9.635149955749512 L 9.582309722900391 11.50372791290283 L 8.68964958190918 8.342279434204102 L 11.25627136230469 6.274125576019287 L 8.024709701538086 6.187250137329102 L 7 3.13865852355957 M 7 0 L 8.75 5.206390380859375 L 14 5.347519874572754 L 9.831560134887695 8.706390380859375 L 11.32624053955078 14 L 7 10.86950016021729 L 2.673760414123535 14 L 4.168439865112305 8.706390380859375 L 0 5.347519874572754 L 5.25 5.206390380859375 L 7 0 Z" stroke="none" fill="#f9c146"/>
  </g>
</svg>
