<svg xmlns="http://www.w3.org/2000/svg" width="9.601" height="9.601" viewBox="0 0 9.601 9.601">
  <g id="ic_star_notmarked" fill="#fff">
    <path d="M 6.89526891708374 8.35270881652832 L 5.093527317047119 7.048957347869873 L 4.800417423248291 6.836857318878174 L 4.507307529449463 7.048957347869873 L 2.705565929412842 8.35270881652832 L 3.339797496795654 6.106487274169922 L 3.429557323455811 5.788557529449463 L 3.172327518463135 5.581287384033203 L 1.371856451034546 4.130497932434082 L 3.613757371902466 4.07022762298584 L 3.962957382202148 4.060837268829346 L 4.074257373809814 3.729707479476929 L 4.800417423248291 1.569313406944275 L 5.526577472686768 3.729707479476929 L 5.637877464294434 4.060837268829346 L 5.987077236175537 4.07022762298584 L 8.228978157043457 4.130497932434082 L 6.428507328033447 5.581287384033203 L 6.171277523040771 5.788557529449463 L 6.261037349700928 6.106487274169922 L 6.89526891708374 8.35270881652832 Z" stroke="none"/>
    <path d="M 4.800417423248291 3.138669013977051 L 4.325607299804688 4.551267623901367 L 2.743727207183838 4.593798160552979 L 4.00051736831665 5.606497764587402 L 3.577524662017822 7.104570865631104 L 4.800417423248291 6.219687461853027 L 6.023310661315918 7.104570865631104 L 5.600317478179932 5.606507301330566 L 6.857107639312744 4.593795776367188 L 5.275227546691895 4.551267623901367 L 4.800417423248291 3.138669013977051 M 4.800417423248291 -2.86102294921875e-06 L 6.00051736831665 3.570407390594482 L 9.600837707519531 3.667187213897705 L 6.742227554321289 5.970617294311523 L 7.767237663269043 9.600837707519531 L 4.800417423248291 7.45402717590332 L 1.833597660064697 9.600837707519531 L 2.858607292175293 5.970617294311523 L -2.86102294921875e-06 3.667197227478027 L 3.600317478179932 3.570407390594482 L 4.800417423248291 -2.86102294921875e-06 Z" stroke="none" fill="#000"/>
  </g>
</svg>
