<svg xmlns="http://www.w3.org/2000/svg" xmlns:xlink="http://www.w3.org/1999/xlink" width="24.768" height="36.662" viewBox="0 0 24.768 36.662">
  <defs>
    <clipPath id="clip-path">
      <rect id="Прямоугольник_256" data-name="Прямоугольник 256" width="24.768" height="36.662" fill="#fff"/>
    </clipPath>
  </defs>
  <g id="ic_user_empty" transform="translate(0 0)">
    <g id="Сгруппировать_188" data-name="Сгруппировать 188" transform="translate(0 0)" clip-path="url(#clip-path)">
      <path id="Контур_52" data-name="Контур 52" d="M13.458,0c.665.119,1.344.186,1.991.368.959.27,1.9.6,2.837.948.649.245.72.479.483,1.15a8.58,8.58,0,0,1,2.646,1.2,8.241,8.241,0,0,1,2.275,2.349A.709.709,0,0,1,23.6,7.07a3.961,3.961,0,0,0-1.05,2.736c0,1.348,0,2.7,0,4.045,0,.5-.4.838-.811.651a.712.712,0,0,1-.388-.489c-.006-1.716-.015-3.435.069-5.148a4.317,4.317,0,0,1,1.073-2.407A6.28,6.28,0,0,0,21,4.893a7.345,7.345,0,0,0-4-1.46c-.2-.016-.4-.048-.6-.067a.576.576,0,0,1-.563-.505.59.59,0,0,1,.388-.687c.116-.051.233-.1.35-.147,0-.038,0-.077,0-.115-.744-.172-1.482-.376-2.232-.509a10.231,10.231,0,0,0-5.257.347A7.834,7.834,0,0,0,3.94,7.438a12.941,12.941,0,0,0-.407,3.327c-.011,1.014-.005,2.028,0,3.042A1.236,1.236,0,0,0,4.2,15.016c.007-.151.016-.264.016-.377,0-1.241-.014-2.482.009-3.723a4.253,4.253,0,0,1,4.119-4.1q4.044-.04,8.09,0a4.24,4.24,0,0,1,4.108,4.107c.027,1.9.109,3.8-.023,5.689a7.866,7.866,0,0,1-4.895,6.928,7.852,7.852,0,0,1-5.49.372c-.106.367-.222.726-.3,1.093-.016.074.08.212.16.261a4.527,4.527,0,0,0,3.123.615c.58-.088.9.037.982.428.083.417-.162.692-.75.789a5.722,5.722,0,0,1-3.982-.77.35.35,0,0,0-.512.047,3.622,3.622,0,0,1-2.466.98,5.073,5.073,0,0,0-5.143,5.153c-.012,1.109,0,2.219-.007,3.329a1.23,1.23,0,0,1-.112.547.534.534,0,0,1-.65.251.594.594,0,0,1-.464-.6C0,35.507,0,34.981.006,34.457c.017-.966-.012-1.935.077-2.895a6.268,6.268,0,0,1,5.245-5.353c.484-.061.976-.062,1.456-.141a2.493,2.493,0,0,0,2.075-2.391.46.46,0,0,0-.2-.345,8.187,8.187,0,0,1-4.322-5.861,4.055,4.055,0,0,1-.1-.815c0-.237-.1-.319-.3-.4A2.434,2.434,0,0,1,2.3,14c0-1.6-.062-3.205.083-4.791A9.572,9.572,0,0,1,7.017,1.34,9.63,9.63,0,0,1,11,.071,2.521,2.521,0,0,0,11.31,0h2.148M12.4,8.067V8.049c-1.276,0-2.552-.011-3.828,0a3.045,3.045,0,0,0-3.137,3.175c0,1.61-.005,3.22,0,4.83a6.942,6.942,0,0,0,13.878.252c.046-1.764.029-3.53,0-5.294a2.959,2.959,0,0,0-2.808-2.933c-1.368-.064-2.742-.013-4.113-.013" transform="translate(0 0)" fill="#fff"/>
      <path id="Контур_53" data-name="Контур 53" d="M40.108,60.827a19.04,19.04,0,0,0-.238-2.695,5.025,5.025,0,0,0-5.017-3.878,3.608,3.608,0,0,1-3.031-1.674.721.721,0,0,1-.166-.485.789.789,0,0,1,.372-.506,1.2,1.2,0,0,1,.653.114c.075.023.123.139.178.217a2.531,2.531,0,0,0,2.126,1.118,6.256,6.256,0,0,1,6.167,5.138,7.643,7.643,0,0,1,.119,1.384c.017,1.085.008,2.17,0,3.255,0,.474-.238.75-.627.747s-.6-.258-.6-.726c-.007-.668,0-1.335,0-2l.065-.005" transform="translate(-16.514 -26.907)" fill="#fff"/>
      <path id="Контур_54" data-name="Контур 54" d="M35.257,71.308c-.309,0-.619.013-.927,0a.611.611,0,0,1-.627-.6.627.627,0,0,1,.641-.628q.891-.02,1.783,0a.617.617,0,0,1,.64.625.6.6,0,0,1-.618.6c-.3.017-.594,0-.891,0" transform="translate(-17.585 -36.56)" fill="#fff"/>
    </g>
  </g>
</svg>
